<?xml version="1.0" standalone="no"?>
<!DOCTYPE svg PUBLIC "-//W3C//DTD SVG 1.1//EN" "http://www.w3.org/Graphics/SVG/1.1/DTD/svg11.dtd" >
<svg xmlns="http://www.w3.org/2000/svg" xmlns:xlink="http://www.w3.org/1999/xlink" version="1.1">
<metadata></metadata>
<defs>
<font id="refinedwikiiconsregular" horiz-adv-x="2048" >
<font-face units-per-em="2048" ascent="2048" descent="0" />
<missing-glyph horiz-adv-x="500" />
<glyph horiz-adv-x="0" />
<glyph horiz-adv-x="682" />
<glyph unicode="&#x2000;" horiz-adv-x="1152" />
<glyph unicode="&#x2001;" horiz-adv-x="2304" />
<glyph unicode="&#x2002;" horiz-adv-x="1152" />
<glyph unicode="&#x2003;" horiz-adv-x="2304" />
<glyph unicode="&#x2004;" horiz-adv-x="768" />
<glyph unicode="&#x2005;" horiz-adv-x="576" />
<glyph unicode="&#x2006;" horiz-adv-x="384" />
<glyph unicode="&#x2007;" horiz-adv-x="384" />
<glyph unicode="&#x2008;" horiz-adv-x="288" />
<glyph unicode="&#x2009;" horiz-adv-x="460" />
<glyph unicode="&#x200a;" horiz-adv-x="128" />
<glyph unicode="&#x202f;" horiz-adv-x="460" />
<glyph unicode="&#x205f;" horiz-adv-x="576" />
<glyph unicode="&#x25fc;" horiz-adv-x="1000" d="M0 0z" />
<glyph unicode="&#xe001;" d="M768 2144v128q285 0 523.5 -92.5t405 -259t259 -405t92.5 -523.5h-128q0 194 -45.5 366t-139.5 316t-229 248.5t-324 163t-414 58.5zM256 2016v-1152q0 -73 27.5 -137.5t70.5 -108.5t95.5 -76t101.5 -47t89 -15t89 15t101.5 47t95.5 76t70.5 108.5t27.5 137.5 q0 40 -15 89t-47 101.5t-76 95.5t-108.5 70.5t-137.5 27.5h-128v256h128q288 0 464 -176t176 -464t-176 -464t-464 -176t-464 176t-176 464v1152h256zM768 1760v128q189 0 355.5 -68.5t285 -187t187 -285t68.5 -355.5h-128q0 117 -30 227.5t-93.5 209t-152.5 172t-216 116.5 t-276 43z" />
<glyph unicode="&#xe002;" d="M0 1888h256v256h-256v-256zM640 1888h1408v256h-1408v-256zM0 1120h256v256h-256v-256zM640 1120h1408v256h-1408v-256zM0 352h256v256h-256v-256zM640 352h1408v256h-1408v-256z" />
<glyph unicode="&#xe003;" d="M0 1888h2048v256h-2048v-256zM512 1120h1536v256h-1536v-256zM512 352h1536v256h-1536v-256z" />
<glyph unicode="&#xe004;" d="M1024 2272q480 0 752 -272t272 -752q0 -154 -44.5 -303t-132.5 -279t-209.5 -229t-286 -156t-351.5 -57q-125 0 -253 40.5t-240 111t-210.5 169t-169 210.5t-111 240t-40.5 253q0 187 57 351.5t156 286t229 209.5t279 132.5t303 44.5zM1774 1520l-174 216l-548 -390 l-412 414l-194 -188l578 -580z" />
<glyph unicode="&#xe005;" d="M0 352h896q-1 8 -2.5 22t-1.5 54.5t4.5 78t19.5 83.5t40 80q55 72 141.5 135t170.5 71q-38 23 -92 44t-88.5 30.5t-39.5 9.5q-58 9 -90.5 59.5t-29.5 130.5q1 27 25 50.5t58.5 51.5t69 70.5t59.5 128t26 203.5q1 89 -14.5 163t-40.5 123.5t-59.5 87.5t-68.5 59.5t-71 35 t-63 17.5t-49 4q-21 0 -46.5 -4t-62.5 -17t-71.5 -33.5t-69.5 -58t-61 -85.5t-42.5 -120t-16.5 -158q0 -112 22.5 -198t54.5 -133t64 -80.5t55 -61t24 -53.5q3 -79 -21.5 -122.5t-92.5 -59.5q-102 -23 -194.5 -54.5t-152 -60t-104.5 -54t-65 -40.5l-20 -15v-384zM2048 352 v256q-18 33 -53.5 58.5t-71 38t-73.5 20.5t-57.5 9.5t-26.5 1.5q-46 6 -75 45t-29 101q0 21 17.5 44.5t43 51.5t51.5 64.5t44.5 98.5t19.5 139q1 96 -22 170.5t-55.5 115.5t-73.5 67.5t-72 34.5t-57 8q-24 0 -55.5 -8.5t-73.5 -34.5t-75.5 -66.5t-57.5 -114t-24 -166.5 q0 -74 17.5 -136t42.5 -101.5t50 -70.5t43 -57.5t19 -46.5q3 -61 -17 -95t-73 -47q-170 -50 -240 -162q-24 -35 -29.5 -89.5t1.5 -91.5l6 -37h956z" />
<glyph unicode="&#xe006;" d="M0 224h2048q0 256 -2 258q-71 71 -172 140t-193.5 116.5t-177 84.5t-134.5 55t-55 18q-73 25 -105 72t-25 136q2 33 30.5 71.5t67 83t77.5 100.5t66.5 144.5t28.5 194.5q1 102 -15.5 186.5t-44 142.5t-66 103t-77.5 71t-82.5 43t-78 22.5t-66.5 5.5q-31 0 -64.5 -6 t-75 -23t-79.5 -43t-75 -71t-64 -102t-43.5 -140.5t-16.5 -182.5q0 -106 25.5 -196.5t62.5 -148t73.5 -103t63 -84t27.5 -68.5q5 -90 -23.5 -139.5t-106.5 -68.5q-116 -26 -233.5 -78.5t-202.5 -109t-153.5 -109t-103.5 -85.5l-35 -34v-256z" />
<glyph unicode="&#xe007;" d="M256 2208v-256q18 0 49.5 -1.5t127.5 -14.5t189 -35.5t220 -72.5t236 -117t220 -176.5t189 -244.5t127.5 -327.5t49.5 -418.5h256q0 21 -1.5 58t-17 150.5t-42.5 224t-85.5 260.5t-138 278.5t-209 260t-289 224t-387 150.5t-494.5 58zM256 1570v-258q123 0 228 -26.5 t178.5 -70.5t133.5 -102t96.5 -121.5t63.5 -127t39.5 -121.5t19.5 -102t8 -71l1 -26l256 2q0 13 -1 36t-10.5 92.5t-26 137.5t-52.5 160.5t-85 171.5t-128.5 160t-177.5 137.5t-238.5 92.5t-304.5 36zM320 928q-120 0 -220 -100t-100 -220t100 -220t220 -100t220 100 t100 220t-100 220t-220 100z" />
<glyph unicode="&#xe008;" d="M754 1576l-754 -88l574 -480l-156 -784l608 414l606 -414l-164 784l580 480l-748 90l-274 694z" />
<glyph unicode="&#xe009;" d="M1662 1322q168 -42 277 -180.5t109 -315.5q0 -105 -40.5 -199.5t-109.5 -163t-163.5 -109t-198.5 -40.5q-139 0 -255 67t-185 181q-126 -44 -264 -44q-169 0 -323 66t-265.5 177t-177.5 265.5t-66 323.5t66 323.5t177.5 265.5t265.5 177t323 66t323 -66t265.5 -177 t177.5 -265.5t66 -323.5q0 -5 -1 -14t-1 -14zM832 646q113 0 212 34q-20 77 -20 146q0 104 40.5 198.5t108.5 163.5t162.5 109.5t198.5 40.5q0 2 1 6t1 6q0 191 -94.5 353t-256.5 256.5t-353 94.5t-353 -94.5t-256.5 -256.5t-94.5 -353q0 -192 94.5 -354t256.5 -256t353 -94 zM1536 442q159 0 271.5 112.5t112.5 271.5t-112.5 271.5t-271.5 112.5q-160 0 -272 -112.5t-112 -271.5t112 -271.5t272 -112.5z" />
<glyph unicode="&#xe00a;" d="M1636 2006h176q98 0 167 -69t69 -167v-1208q0 -98 -69 -167t-167 -69h-1578q-97 0 -165.5 69t-68.5 167v1208q0 98 68.5 167t165.5 69h30q14 0 23 -9t9 -23v-224q0 -76 55 -131t131 -55q78 0 133 54.5t55 131.5q0 51 -26 94.5t-70 67.5l-18 10v-172q0 -30 -21.5 -51 t-52.5 -21q-30 0 -51 21t-21 51v348q0 30 21 51t51 21q31 0 52.5 -21t21.5 -51v-92h790q12 0 21 -9.5t9 -22.5v-224q0 -77 55 -131.5t133 -54.5q76 0 131 55t55 131q0 51 -26 94.5t-70 67.5l-18 10v-172q0 -30 -21 -51t-51 -21q-31 0 -52.5 21t-21.5 51v348q0 30 21.5 51 t52.5 21q30 0 51 -21t21 -51v-92zM162 1366v-794q0 -40 28 -68t68 -28h1530q40 0 68 28t28 68v794h-1722zM1026 750h-6q-98 0 -195.5 21.5t-166.5 50t-135 67.5t-98.5 63.5t-60.5 49.5q-38 35 -16 76q16 26 46 26q15 0 26 -8q143 -81 285 -128.5t319 -47.5q176 0 318 47.5 t284 128.5q11 8 26 8q30 0 46 -26q22 -41 -16 -76q-28 -25 -60 -49.5t-98 -63.5t-135 -67.5t-166.5 -50t-196.5 -21.5z" />
<glyph unicode="&#xe00b;" d="M2048 2144v-1792h-2048v1792h2048zM1920 2016h-1792v-1536h1792v1536zM640 736h-256v1024h256v-1024zM1664 736h-768v1024h768v-1024z" />
<glyph unicode="&#xe00c;" d="M1920 1760h-1792l896 -1024z" />
<glyph unicode="&#xe00d;" d="M256 992q-96 0 -176 80t-80 176t80 176t176 80t176 -80t80 -176t-80 -176t-176 -80zM1024 992q-96 0 -176 80t-80 176t80 176t176 80t176 -80t80 -176t-80 -176t-176 -80zM1792 992q-96 0 -176 80t-80 176t80 176t176 80t176 -80t80 -176t-80 -176t-176 -80z" />
<glyph unicode="&#xe00e;" d="M1920 992v-512h-768v512h256v256h-896v-256h256v-512h-768v512h384v384h512v256h-384v384h896v-384h-384v-256h512v-384h384z" />
<glyph unicode="&#xe00f;" d="M2048 506l-254 -254l-624 626q-7 -5 -20.5 -14t-57.5 -31.5t-90.5 -39.5t-116 -31t-137.5 -14q-203 0 -375.5 100.5t-272.5 272.5t-100 375q0 153 59 291.5t159 238.5t238.5 159t291.5 59t291.5 -59t238.5 -159t159 -238.5t59 -291.5q0 -67 -9.5 -128.5t-23 -101.5 t-27 -71t-22.5 -45l-10 -14zM748 1088q170 0 289 119t119 289t-119 289t-289 119t-289 -119t-119 -289t119 -289t289 -119z" />
<glyph unicode="&#xe010;" d="M614 2168q-250 -164 -268 -556h386q0 118 66 220q63 108 218 108q157 0 218 -86q60 -87 60 -190q0 -94 -54 -166q-30 -45 -78 -84l-96 -78q-145 -112 -178 -206q-35 -78 -44 -316h362q0 106 16 160q27 85 104 144l94 76q150 119 196 190q86 126 86 302q0 289 -200 438 q-198 150 -502 150q-232 0 -386 -106zM836 224h398v398h-398v-398z" />
<glyph unicode="&#xe011;" d="M1024 832q-174 0 -295 121t-121 295q0 172 121.5 294t294.5 122q171 0 293.5 -122.5t122.5 -293.5q0 -173 -122 -294.5t-294 -121.5z" />
<glyph unicode="&#xe012;" d="M1920 1792v-1024h-1280v1536h768zM1792 896v768h-512v512h-512v-1280h1024zM1280 640h128v-384h-1280v1536h384v-128h-256v-1280h1024v256z" />
<glyph unicode="&#xe013;" d="M1152 1792h-1152v256h1152v-256zM1536 1536h-192l320 320l320 -320h-192v-512h-256v512zM1152 1152h-1152v256h1152v-256zM2048 768v-256h-1152v256h1152z" />
<glyph unicode="&#xe014;" d="M1540 1120v256h-384v-768h384v256h512v-640h-512v256h-512v1408h-384v-256h-640v640h640v-256h512v-512h384v256h512v-640h-512zM1668 1248h256v384h-256v-384zM1668 352h256v384h-256v-384z" />
<glyph unicode="&#xe015;" d="M2048 992h-768v-768h-512v768h-768v512h768v768h512v-768h768v-512z" />
<glyph unicode="&#xe016;" d="M2048 1504v-512h-2048v512h2048z" />
<glyph unicode="&#xe017;" d="M2048 1376v-768h-256v512h-1152v-512l-640 640l640 640v-512h1408z" />
<glyph unicode="&#xe018;" d="M1024 2272l1024 -896h-256v-1152h-1536v1152h-256z" />
<glyph unicode="&#xe019;" d="M0 1248q11 -13 30.5 -36t82.5 -89.5t129 -127t163.5 -134.5t192 -127t208.5 -89.5t218 -36.5t217 35.5t210 91.5t190.5 124.5t165.5 137t127 124.5t84 91l30 36q-11 13 -30.5 36t-82.5 89.5t-129 127t-163.5 134.5t-192 127t-208.5 89.5t-218 36.5t-217 -35.5t-210 -91.5 t-190.5 -124.5t-165.5 -137t-127 -124.5t-84 -91zM1026 862q-159 0 -271.5 112.5t-112.5 271.5t112.5 271.5t271.5 112.5t271.5 -112.5t112.5 -271.5t-112.5 -271.5t-271.5 -112.5zM1030 990q-106 0 -181 75t-75 181q0 105 75 180.5t181 75.5t181 -75.5t75 -180.5 q0 -106 -75 -181t-181 -75z" />
<glyph unicode="&#xe01a;" d="M2048 800v514q0 159 -112.5 271.5t-271.5 112.5h-256v256q0 5 -1 13.5t-7.5 31t-18.5 39t-38.5 30.5t-62.5 14h-512q-5 0 -13.5 -1t-31 -7.5t-39 -18.5t-30.5 -38.5t-14 -62.5v-256h-256q-159 0 -271.5 -112.5t-112.5 -271.5v-514q0 -159 112.5 -271.5t271.5 -112.5h1280 q159 0 271.5 112.5t112.5 271.5zM1024 672q-159 0 -271.5 112t-112.5 272q0 159 112.5 271.5t271.5 112.5t271.5 -112.5t112.5 -271.5q0 -160 -112.5 -272t-271.5 -112zM1024 800q-106 0 -181 75t-75 181q0 105 75 180.5t181 75.5t181 -75.5t75 -180.5q0 -106 -75 -181 t-181 -75z" />
<glyph unicode="&#xe01b;" d="M2048 2272l-688 -848l6 -1200l-684 528l4 662l-686 858h2048zM856 838l338 -274l-2 902l532 644h-1392l524 -644v-628z" />
<glyph unicode="&#xe01c;" d="M2048 1932v-128l-1024 -512l-1024 512v128h2048zM1024 1070l1024 516v-1020h-2048v1020z" />
<glyph unicode="&#xe01d;" d="M2040 576l4 -50v-6q0 -35 -28 -82q-22 -36 -72 -90q-103 -100 -202 -120q-24 -4 -46 -4q-69 0 -162 27.5t-220.5 89t-295 182t-346.5 285.5l-2 2q-120 111 -220.5 223.5t-165.5 201.5t-116 177t-77 146.5t-45 113.5q-5 14 -30 102q-4 15 -8 62q-4 52 -4 86q0 32 4 84 q4 45 8 58q3 14 28 36q21 21 54 44q30 23 130 86l52 32q15 10 32 10q8 0 16 -2.5t12 -5.5l4 -2l322 -462q14 -23 14 -66v-16q-2 -2 -2 -4t-2 -4l-6 -16q-3 -6 -11.5 -21t-12.5 -23q-12 -20 -33.5 -59.5t-26.5 -48.5q-6 -10 -24 -46l-2 -4q-2 -8 -2 -32v-40q0 -5 10 -30 q4 -7 20 -28q4 -4 8 -12l2 -2l2 -2l10 -10q8 -10 34 -36q28 -30 112 -114q41 -42 132 -134t126 -128l76 -78l2 -2q4 -4 8 -6l24 -18q42 -27 86 -32q32 -4 40 -4q32 0 68 18l26 16q6 4 13.5 9.5t18 12t16.5 10.5q55 36 96 58l16 6h16q11 0 22 -2t16 -4l6 -2l454 -266 q6 -6 8 -10l6 -14q4 -12 8 -40z" />
<glyph unicode="&#xe01e;" d="M0 1640l1416 -1416l632 640l-1408 1408h-640v-632z" />
<glyph unicode="&#xe01f;" d="M520 2272v-512h-520v512h520zM1288 2272v-512h-520v512h520zM2048 2272v-512h-520v512h520zM516 1504v-512h-516v512h516zM1284 1504v-512h-516v512h516zM2044 1504v-512h-516v512h516zM516 740v-516h-516v516h516zM1284 740v-516h-516v516h516zM2044 740v-516h-516v516 h516z" />
</font>
</defs>
</svg>
